%TF.GenerationSoftware,KiCad,Pcbnew,10.0.6*%
%TF.CreationDate,2026-10-07T16:03:42+02:00*%
%TF.ProjectId,KijaniCarrier,4b696a61-6e69-4436-9172-726965722e6b,rev?*%
%TF.SameCoordinates,Original*%
%TF.FileFunction,Paste,Top*%
%TF.FilePolarity,Positive*%
%FSLAX46Y46*%
G04 Gerber Fmt 4.6, Leading zero omitted, Abs format (unit mm)*
G04 Created by KiCad (PCBNEW 10.0.6) date 2026-10-07 16:03:42*
%MOMM*%
%LPD*%
G01*
G04 APERTURE LIST*
G04 Aperture macros list*
%AMRoundRect*
0 Rectangle with rounded corners*
0 $1 Rounding radius*
0 $2 $3 $4 $5 $6 $7 $8 $9 X,Y pos of 4 corners*
0 Add a 4 corners polygon primitive as box body*
4,1,4,$2,$3,$4,$5,$6,$7,$8,$9,$2,$3,0*
0 Add four circle primitives for the rounded corners*
1,1,$1+$1,$2,$3*
1,1,$1+$1,$4,$5*
1,1,$1+$1,$6,$7*
1,1,$1+$1,$8,$9*
0 Add four rect primitives between the rounded corners*
20,1,$1+$1,$2,$3,$4,$5,0*
20,1,$1+$1,$4,$5,$6,$7,0*
20,1,$1+$1,$6,$7,$8,$9,0*
20,1,$1+$1,$8,$9,$2,$3,0*%
G04 Aperture macros list end*
%ADD10RoundRect,0.250000X-0.250000X-0.475000X0.250000X-0.475000X0.250000X0.475000X-0.250000X0.475000X0*%
%ADD11RoundRect,0.200000X-0.200000X-0.275000X0.200000X-0.275000X0.200000X0.275000X-0.200000X0.275000X0*%
%ADD12RoundRect,0.225000X-0.225000X-0.250000X0.225000X-0.250000X0.225000X0.250000X-0.225000X0.250000X0*%
%ADD13RoundRect,0.150000X-0.587500X-0.150000X0.587500X-0.150000X0.587500X0.150000X-0.587500X0.150000X0*%
%ADD14RoundRect,0.250000X-0.312500X-1.450000X0.312500X-1.450000X0.312500X1.450000X-0.312500X1.450000X0*%
%ADD15RoundRect,0.250000X-1.000000X-0.900000X1.000000X-0.900000X1.000000X0.900000X-1.000000X0.900000X0*%
%ADD16RoundRect,0.250000X-1.000000X-0.650000X1.000000X-0.650000X1.000000X0.650000X-1.000000X0.650000X0*%
G04 APERTURE END LIST*
D10*
%TO.C,C9*%
X59050000Y-74000000D03*
X60950000Y-74000000D03*
%TD*%
D11*
%TO.C,R12*%
X84825000Y-46000000D03*
X83175000Y-46000000D03*
%TD*%
%TO.C,R2*%
X37175000Y-58000000D03*
X38825000Y-58000000D03*
%TD*%
%TO.C,R3*%
X43175000Y-58000000D03*
X44825000Y-58000000D03*
%TD*%
%TO.C,R11*%
X84825000Y-50000000D03*
X83175000Y-50000000D03*
%TD*%
D12*
%TO.C,C3*%
X43225000Y-54000000D03*
X44775000Y-54000000D03*
%TD*%
D11*
%TO.C,R1*%
X31175000Y-58000000D03*
X32825000Y-58000000D03*
%TD*%
D13*
%TO.C,Q3*%
X31062500Y-75050000D03*
X31062500Y-76950000D03*
X32937500Y-76000000D03*
%TD*%
D14*
%TO.C,F1*%
X42862500Y-38000000D03*
X47137500Y-38000000D03*
%TD*%
D15*
%TO.C,D2*%
X50850000Y-50000000D03*
X55150000Y-50000000D03*
%TD*%
D13*
%TO.C,Q1*%
X31062500Y-53050000D03*
X31062500Y-54950000D03*
X32937500Y-54000000D03*
%TD*%
D11*
%TO.C,R4*%
X31175000Y-80000000D03*
X32825000Y-80000000D03*
%TD*%
D12*
%TO.C,C7*%
X43225000Y-88000000D03*
X44775000Y-88000000D03*
%TD*%
D11*
%TO.C,R9*%
X39175000Y-100000000D03*
X40825000Y-100000000D03*
%TD*%
D12*
%TO.C,C6*%
X37225000Y-88000000D03*
X38775000Y-88000000D03*
%TD*%
D11*
%TO.C,R7*%
X64175000Y-58000000D03*
X65825000Y-58000000D03*
%TD*%
D13*
%TO.C,Q2*%
X37062500Y-53050000D03*
X37062500Y-54950000D03*
X38937500Y-54000000D03*
%TD*%
D11*
%TO.C,RT1*%
X59175000Y-58000000D03*
X60825000Y-58000000D03*
%TD*%
D13*
%TO.C,U2*%
X31062500Y-87050000D03*
X31062500Y-88950000D03*
X32937500Y-88000000D03*
%TD*%
D16*
%TO.C,D1*%
X50000000Y-38000000D03*
X54000000Y-38000000D03*
%TD*%
D12*
%TO.C,C5*%
X43225000Y-76000000D03*
X44775000Y-76000000D03*
%TD*%
D11*
%TO.C,R5*%
X37175000Y-80000000D03*
X38825000Y-80000000D03*
%TD*%
%TO.C,JP1*%
X31175000Y-92000000D03*
X32825000Y-92000000D03*
%TD*%
D12*
%TO.C,C10*%
X64225000Y-74000000D03*
X65775000Y-74000000D03*
%TD*%
D11*
%TO.C,R6*%
X43175000Y-80000000D03*
X44825000Y-80000000D03*
%TD*%
%TO.C,R8*%
X69175000Y-58000000D03*
X70825000Y-58000000D03*
%TD*%
D13*
%TO.C,Q4*%
X37062500Y-75050000D03*
X37062500Y-76950000D03*
X38937500Y-76000000D03*
%TD*%
M02*
