M48
; DRILL file KiCad 10.0.6 date 2026-10-07T16:03:42
; FORMAT={-:-/ absolute / metric / decimal}
; #@! TF.CreationDate,2026-10-07T16:03:42+02:00
; #@! TF.GenerationSoftware,Kicad,Pcbnew,10.0.6
; #@! TF.FileFunction,MixedPlating,1,2
FMAT,2
METRIC
; #@! TA.AperFunction,Plated,PTH,ViaDrill
T1C0.400
; #@! TA.AperFunction,Plated,PTH,ComponentDrill
T2C0.800
; #@! TA.AperFunction,Plated,PTH,ComponentDrill
T3C1.000
; #@! TA.AperFunction,Plated,PTH,ComponentDrill
T4C1.050
; #@! TA.AperFunction,Plated,PTH,ComponentDrill
T5C1.300
; #@! TA.AperFunction,Plated,PTH,ComponentDrill
T6C1.500
; #@! TA.AperFunction,Plated,PTH,ComponentDrill
T7C1.700
; #@! TA.AperFunction,NonPlated,NPTH,ComponentDrill
T8C3.200
%
G90
G05
T1
X24.5Y-92.0
X27.5Y-85.0
X34.3Y-78.0
X34.5Y-54.0
X35.5Y-82.0
X36.0Y-67.0
X36.0Y-100.0
X37.0Y-81.5
X39.17Y-103.0
X39.8Y-61.0
X41.0Y-71.0
X41.0Y-74.0
X41.0Y-93.0
X42.0Y-79.0
X43.23Y-90.0
X44.0Y-81.5
X45.5Y-62.0
X47.5Y-76.0
X49.5Y-104.0
X50.5Y-62.0
X54.0Y-104.0
X59.0Y-104.0
X59.17Y-54.0
X60.0Y-95.0
X60.83Y-55.5
X64.17Y-54.0
X69.17Y-55.5
X70.0Y-90.0
X70.83Y-61.0
X71.81Y-44.0
X72.5Y-55.5
X72.5Y-100.0
X75.0Y-56.0
X85.5Y-44.0
X86.54Y-65.0
X89.08Y-44.0
X89.08Y-67.0
T2
X42.0Y-45.0
X45.5Y-45.0
T3
X48.0Y-66.0
X53.0Y-66.0
X64.0Y-66.0
X69.0Y-66.0
T4
X31.46Y-72.5
X34.0Y-72.5
X36.54Y-72.5
X64.19Y-41.0
X66.73Y-41.0
X69.27Y-41.0
X71.81Y-41.0
X78.92Y-61.11
X78.92Y-78.89
X81.46Y-61.11
X81.46Y-78.89
X81.46Y-87.11
X81.46Y-104.89
X84.0Y-61.11
X84.0Y-78.89
X84.0Y-87.11
X84.0Y-104.89
X86.54Y-61.11
X86.54Y-78.89
X86.54Y-87.11
X86.54Y-104.89
X89.08Y-61.11
X89.08Y-78.89
X100.92Y-61.11
X100.92Y-78.89
X103.46Y-61.11
X103.46Y-78.89
X103.46Y-87.11
X103.46Y-104.89
X106.0Y-61.11
X106.0Y-78.89
X106.0Y-87.11
X106.0Y-104.89
X108.54Y-61.11
X108.54Y-78.89
X108.54Y-87.11
X108.54Y-104.89
X111.08Y-61.11
X111.08Y-78.89
T5
X29.0Y-113.0
X32.0Y-40.0
X32.5Y-113.0
X35.5Y-40.0
X36.0Y-113.0
X36.5Y-27.0
X40.0Y-27.0
X46.0Y-113.0
X47.0Y-27.0
X49.5Y-113.0
X50.5Y-27.0
X53.0Y-113.0
X54.0Y-27.0
X56.5Y-113.0
X63.0Y-27.0
X65.0Y-113.0
X66.5Y-27.0
X68.0Y-51.0
X68.5Y-113.0
X70.0Y-27.0
X71.5Y-51.0
X72.0Y-113.0
X75.5Y-113.0
X77.5Y-27.0
X81.0Y-27.0
X84.5Y-27.0
X88.0Y-27.0
X102.5Y-27.0
X106.0Y-27.0
T6
X84.0Y-113.0
X106.0Y-113.0
T7
X81.46Y-110.46
X81.46Y-115.54
X86.54Y-110.46
X86.54Y-115.54
X103.46Y-110.46
X103.46Y-115.54
X108.54Y-110.46
X108.54Y-115.54
T8
X25.0Y-25.0
X25.0Y-102.0
X115.0Y-25.0
X115.0Y-112.0
M30
