%TF.GenerationSoftware,KiCad,Pcbnew,10.0.6*%
%TF.CreationDate,2026-10-06T17:19:26+02:00*%
%TF.ProjectId,KijaniCarrier,4b696a61-6e69-4436-9172-726965722e6b,rev?*%
%TF.SameCoordinates,Original*%
%TF.FileFunction,Soldermask,Top*%
%TF.FilePolarity,Negative*%
%FSLAX46Y46*%
G04 Gerber Fmt 4.6, Leading zero omitted, Abs format (unit mm)*
G04 Created by KiCad (PCBNEW 10.0.6) date 2026-10-06 17:19:26*
%MOMM*%
%LPD*%
G01*
G04 APERTURE LIST*
G04 Aperture macros list*
%AMRoundRect*
0 Rectangle with rounded corners*
0 $1 Rounding radius*
0 $2 $3 $4 $5 $6 $7 $8 $9 X,Y pos of 4 corners*
0 Add a 4 corners polygon primitive as box body*
4,1,4,$2,$3,$4,$5,$6,$7,$8,$9,$2,$3,0*
0 Add four circle primitives for the rounded corners*
1,1,$1+$1,$2,$3*
1,1,$1+$1,$4,$5*
1,1,$1+$1,$6,$7*
1,1,$1+$1,$8,$9*
0 Add four rect primitives between the rounded corners*
20,1,$1+$1,$2,$3,$4,$5,0*
20,1,$1+$1,$4,$5,$6,$7,0*
20,1,$1+$1,$6,$7,$8,$9,0*
20,1,$1+$1,$8,$9,$2,$3,0*%
G04 Aperture macros list end*
%ADD10C,3.200000*%
%ADD11R,1.800000X1.800000*%
%ADD12C,1.800000*%
%ADD13RoundRect,0.250000X-0.250000X-0.475000X0.250000X-0.475000X0.250000X0.475000X-0.250000X0.475000X0*%
%ADD14RoundRect,0.250000X-0.750000X-0.750000X0.750000X-0.750000X0.750000X0.750000X-0.750000X0.750000X0*%
%ADD15C,2.000000*%
%ADD16RoundRect,0.250000X-1.050000X-1.050000X1.050000X-1.050000X1.050000X1.050000X-1.050000X1.050000X0*%
%ADD17C,2.600000*%
%ADD18RoundRect,0.200000X-0.200000X-0.275000X0.200000X-0.275000X0.200000X0.275000X-0.200000X0.275000X0*%
%ADD19RoundRect,0.225000X-0.225000X-0.250000X0.225000X-0.250000X0.225000X0.250000X-0.225000X0.250000X0*%
%ADD20RoundRect,0.150000X-0.587500X-0.150000X0.587500X-0.150000X0.587500X0.150000X-0.587500X0.150000X0*%
%ADD21RoundRect,0.250000X-0.312500X-1.450000X0.312500X-1.450000X0.312500X1.450000X-0.312500X1.450000X0*%
%ADD22RoundRect,0.250000X-1.000000X-0.900000X1.000000X-0.900000X1.000000X0.900000X-1.000000X0.900000X0*%
%ADD23RoundRect,0.250000X-0.550000X-0.550000X0.550000X-0.550000X0.550000X0.550000X-0.550000X0.550000X0*%
%ADD24C,1.600000*%
%ADD25RoundRect,0.250000X-1.000000X-0.650000X1.000000X-0.650000X1.000000X0.650000X-1.000000X0.650000X0*%
%ADD26C,2.050000*%
%ADD27C,2.250000*%
G04 APERTURE END LIST*
D10*
%TO.C,H2*%
X115000000Y-112000000D03*
%TD*%
D11*
%TO.C,U1*%
X36540000Y-72500000D03*
D12*
X34000000Y-72500000D03*
X31460000Y-72500000D03*
%TD*%
D13*
%TO.C,C9*%
X59050000Y-74000000D03*
X60950000Y-74000000D03*
%TD*%
D14*
%TO.C,C4*%
X48000000Y-66000000D03*
D15*
X53000000Y-66000000D03*
%TD*%
D16*
%TO.C,J2*%
X40000000Y-27000000D03*
D17*
X36500000Y-27000000D03*
%TD*%
D18*
%TO.C,R12*%
X84825000Y-46000000D03*
X83175000Y-46000000D03*
%TD*%
%TO.C,R2*%
X37175000Y-58000000D03*
X38825000Y-58000000D03*
%TD*%
D16*
%TO.C,J8*%
X68000000Y-51000000D03*
D17*
X71500000Y-51000000D03*
%TD*%
D16*
%TO.C,X1*%
X32000000Y-40000000D03*
D17*
X35500000Y-40000000D03*
%TD*%
D18*
%TO.C,R3*%
X43175000Y-58000000D03*
X44825000Y-58000000D03*
%TD*%
%TO.C,R11*%
X84825000Y-50000000D03*
X83175000Y-50000000D03*
%TD*%
D11*
%TO.C,U6*%
X81460000Y-87110000D03*
D12*
X84000000Y-87110000D03*
X86540000Y-87110000D03*
X81460000Y-104890000D03*
X84000000Y-104890000D03*
X86540000Y-104890000D03*
%TD*%
D19*
%TO.C,C3*%
X43225000Y-54000000D03*
X44775000Y-54000000D03*
%TD*%
D18*
%TO.C,R1*%
X31175000Y-58000000D03*
X32825000Y-58000000D03*
%TD*%
D20*
%TO.C,Q3*%
X31062500Y-75050000D03*
X31062500Y-76950000D03*
X32937500Y-76000000D03*
%TD*%
D21*
%TO.C,F1*%
X42862500Y-38000000D03*
X47137500Y-38000000D03*
%TD*%
D22*
%TO.C,D2*%
X50850000Y-50000000D03*
X55150000Y-50000000D03*
%TD*%
D14*
%TO.C,C8*%
X64000000Y-66000000D03*
D15*
X69000000Y-66000000D03*
%TD*%
D11*
%TO.C,U7*%
X103460000Y-87110000D03*
D12*
X106000000Y-87110000D03*
X108540000Y-87110000D03*
X103460000Y-104890000D03*
X106000000Y-104890000D03*
X108540000Y-104890000D03*
%TD*%
D20*
%TO.C,Q1*%
X31062500Y-53050000D03*
X31062500Y-54950000D03*
X32937500Y-54000000D03*
%TD*%
D10*
%TO.C,H4*%
X115000000Y-25000000D03*
%TD*%
D18*
%TO.C,R4*%
X31175000Y-80000000D03*
X32825000Y-80000000D03*
%TD*%
D16*
%TO.C,J3*%
X54000000Y-27000000D03*
D17*
X50500000Y-27000000D03*
X47000000Y-27000000D03*
%TD*%
D19*
%TO.C,C7*%
X43225000Y-88000000D03*
X44775000Y-88000000D03*
%TD*%
D11*
%TO.C,U4*%
X78920000Y-61110000D03*
D12*
X81460000Y-61110000D03*
X84000000Y-61110000D03*
X86540000Y-61110000D03*
X89080000Y-61110000D03*
X78920000Y-78890000D03*
X81460000Y-78890000D03*
X84000000Y-78890000D03*
X86540000Y-78890000D03*
X89080000Y-78890000D03*
%TD*%
D18*
%TO.C,R9*%
X39175000Y-100000000D03*
X40825000Y-100000000D03*
%TD*%
D19*
%TO.C,C6*%
X37225000Y-88000000D03*
X38775000Y-88000000D03*
%TD*%
D18*
%TO.C,R7*%
X64175000Y-58000000D03*
X65825000Y-58000000D03*
%TD*%
D20*
%TO.C,Q2*%
X37062500Y-53050000D03*
X37062500Y-54950000D03*
X38937500Y-54000000D03*
%TD*%
D16*
%TO.C,J5*%
X88000000Y-27000000D03*
D17*
X84500000Y-27000000D03*
X81000000Y-27000000D03*
X77500000Y-27000000D03*
%TD*%
D16*
%TO.C,X3*%
X46000000Y-113000000D03*
D17*
X49500000Y-113000000D03*
X53000000Y-113000000D03*
X56500000Y-113000000D03*
%TD*%
D18*
%TO.C,RT1*%
X59175000Y-58000000D03*
X60825000Y-58000000D03*
%TD*%
D23*
%TO.C,C1*%
X42000000Y-45000000D03*
D24*
X45500000Y-45000000D03*
%TD*%
D11*
%TO.C,U3*%
X64190000Y-41000000D03*
D12*
X66730000Y-41000000D03*
X69270000Y-41000000D03*
X71810000Y-41000000D03*
%TD*%
D20*
%TO.C,U2*%
X31062500Y-87050000D03*
X31062500Y-88950000D03*
X32937500Y-88000000D03*
%TD*%
D25*
%TO.C,D1*%
X50000000Y-38000000D03*
X54000000Y-38000000D03*
%TD*%
D19*
%TO.C,C5*%
X43225000Y-76000000D03*
X44775000Y-76000000D03*
%TD*%
D16*
%TO.C,J4*%
X70000000Y-27000000D03*
D17*
X66500000Y-27000000D03*
X63000000Y-27000000D03*
%TD*%
D16*
%TO.C,X2*%
X29000000Y-113000000D03*
D17*
X32500000Y-113000000D03*
X36000000Y-113000000D03*
%TD*%
D18*
%TO.C,R5*%
X37175000Y-80000000D03*
X38825000Y-80000000D03*
%TD*%
D10*
%TO.C,H3*%
X25000000Y-25000000D03*
%TD*%
%TO.C,H1*%
X25000000Y-102000000D03*
%TD*%
D18*
%TO.C,JP1*%
X31175000Y-92000000D03*
X32825000Y-92000000D03*
%TD*%
D19*
%TO.C,C10*%
X64225000Y-74000000D03*
X65775000Y-74000000D03*
%TD*%
D26*
%TO.C,J9*%
X106000000Y-113000000D03*
D27*
X103460000Y-110460000D03*
X103460000Y-115540000D03*
X108540000Y-110460000D03*
X108540000Y-115540000D03*
%TD*%
D16*
%TO.C,J6*%
X106000000Y-27000000D03*
D17*
X102500000Y-27000000D03*
%TD*%
D18*
%TO.C,R6*%
X43175000Y-80000000D03*
X44825000Y-80000000D03*
%TD*%
D11*
%TO.C,U5*%
X100920000Y-61110000D03*
D12*
X103460000Y-61110000D03*
X106000000Y-61110000D03*
X108540000Y-61110000D03*
X111080000Y-61110000D03*
X100920000Y-78890000D03*
X103460000Y-78890000D03*
X106000000Y-78890000D03*
X108540000Y-78890000D03*
X111080000Y-78890000D03*
%TD*%
D18*
%TO.C,R8*%
X69175000Y-58000000D03*
X70825000Y-58000000D03*
%TD*%
D16*
%TO.C,X4*%
X65000000Y-113000000D03*
D17*
X68500000Y-113000000D03*
X72000000Y-113000000D03*
X75500000Y-113000000D03*
%TD*%
D20*
%TO.C,Q4*%
X37062500Y-75050000D03*
X37062500Y-76950000D03*
X38937500Y-76000000D03*
%TD*%
D26*
%TO.C,J7*%
X84000000Y-113000000D03*
D27*
X81460000Y-110460000D03*
X81460000Y-115540000D03*
X86540000Y-110460000D03*
X86540000Y-115540000D03*
%TD*%
M02*
